<svg width="25" height="25" viewBox="0 0 25 25" fill="none" xmlns="http://www.w3.org/2000/svg">
<path d="M19.6169 13.7402C19.3969 13.7402 19.1669 13.6702 18.9469 13.6202C18.5013 13.522 18.0635 13.3917 17.6369 13.2302C17.1729 13.0615 16.663 13.0702 16.2052 13.2548C15.7473 13.4394 15.3739 13.7869 15.1569 14.2302L14.9369 14.6802C13.9629 14.1384 13.0678 13.4655 12.2769 12.6802C11.4916 11.8892 10.8187 10.9942 10.2769 10.0202L10.6969 9.74022C11.1402 9.52314 11.4876 9.14975 11.6723 8.69192C11.8569 8.23408 11.8656 7.72414 11.6969 7.26022C11.5381 6.83265 11.4078 6.39502 11.3069 5.95022C11.2569 5.73022 11.2169 5.50022 11.1869 5.27022C11.0654 4.56584 10.6965 3.92797 10.1465 3.47146C9.59648 3.01496 8.90155 2.76983 8.18686 2.78022H5.18686C4.75589 2.77618 4.32911 2.86504 3.93557 3.04076C3.54203 3.21647 3.19097 3.47492 2.90629 3.79851C2.62161 4.12209 2.40999 4.50322 2.28585 4.91594C2.1617 5.32866 2.12794 5.76328 2.18686 6.19022C2.7196 10.3796 4.63289 14.2721 7.62451 17.2529C10.6161 20.2336 14.5156 22.1327 18.7069 22.6502H19.0869C19.8243 22.6513 20.5363 22.3808 21.0869 21.8902C21.4032 21.6073 21.6559 21.2604 21.8283 20.8725C22.0007 20.4847 22.0888 20.0647 22.0869 19.6402V16.6402C22.0746 15.9456 21.8217 15.2768 21.3712 14.7479C20.9207 14.219 20.3007 13.8629 19.6169 13.7402V13.7402ZM20.1169 19.7402C20.1167 19.8822 20.0863 20.0225 20.0276 20.1518C19.969 20.2812 19.8835 20.3965 19.7769 20.4902C19.6651 20.5867 19.5345 20.6588 19.3933 20.7018C19.2521 20.7449 19.1034 20.758 18.9569 20.7402C15.2118 20.26 11.7331 18.5467 9.06957 15.8705C6.40605 13.1943 4.70927 9.70756 4.24686 5.96022C4.23094 5.81374 4.24489 5.66555 4.28786 5.52462C4.33083 5.38368 4.40193 5.25291 4.49686 5.14022C4.59057 5.03356 4.70592 4.94807 4.83524 4.88944C4.96455 4.83082 5.10487 4.8004 5.24686 4.80022H8.24686C8.47941 4.79505 8.70648 4.8711 8.889 5.0153C9.07152 5.15949 9.19807 5.36279 9.24686 5.59022C9.28686 5.86356 9.33686 6.13356 9.39686 6.40022C9.51238 6.92737 9.66612 7.4454 9.85686 7.95022L8.45686 8.60022C8.33716 8.65515 8.22948 8.73317 8.14002 8.82982C8.05055 8.92647 7.98106 9.03984 7.93553 9.16342C7.89 9.287 7.86933 9.41836 7.87471 9.54995C7.88008 9.68154 7.9114 9.81077 7.96686 9.93022C9.40606 13.013 11.8841 15.491 14.9669 16.9302C15.2103 17.0302 15.4834 17.0302 15.7269 16.9302C15.8516 16.8856 15.9662 16.8167 16.064 16.7274C16.1619 16.6381 16.241 16.5303 16.2969 16.4102L16.9169 15.0102C17.4338 15.1951 17.9614 15.3487 18.4969 15.4702C18.7635 15.5302 19.0335 15.5802 19.3069 15.6202C19.5343 15.669 19.7376 15.7956 19.8818 15.9781C20.026 16.1606 20.102 16.3877 20.0969 16.6202L20.1169 19.7402Z" fill="white"/>
</svg>
