<svg width="25" height="25" viewBox="0 0 25 25" fill="none" xmlns="http://www.w3.org/2000/svg">
<path d="M19.1638 4.74023H5.16382C4.36817 4.74023 3.60511 5.0563 3.0425 5.61891C2.47989 6.18152 2.16382 6.94458 2.16382 7.74023V17.7402C2.16382 18.5359 2.47989 19.2989 3.0425 19.8616C3.60511 20.4242 4.36817 20.7402 5.16382 20.7402H19.1638C19.9595 20.7402 20.7225 20.4242 21.2851 19.8616C21.8477 19.2989 22.1638 18.5359 22.1638 17.7402V7.74023C22.1638 6.94458 21.8477 6.18152 21.2851 5.61891C20.7225 5.0563 19.9595 4.74023 19.1638 4.74023V4.74023ZM18.5908 6.74023L12.7638 11.5402C12.5973 11.6669 12.395 11.7378 12.1859 11.7429C11.9767 11.7479 11.7712 11.6868 11.5988 11.5682L5.73682 6.74023H18.5908ZM19.1638 18.7402H5.16382C4.8986 18.7402 4.64425 18.6349 4.45671 18.4473C4.26918 18.2598 4.16382 18.0055 4.16382 17.7402V8.04023L10.3638 13.1402C10.8797 13.5266 11.5073 13.7347 12.1518 13.7332C12.8189 13.7322 13.4675 13.5143 13.9998 13.1122L20.1638 8.04023V17.7402C20.1638 18.0055 20.0585 18.2598 19.8709 18.4473C19.6834 18.6349 19.429 18.7402 19.1638 18.7402Z" fill="white"/>
</svg>
